<svg aria-hidden="true" style="position: absolute; width: 0; height: 0; overflow: hidden;" version="1.1" xmlns="http://www.w3.org/2000/svg" xmlns:xlink="http://www.w3.org/1999/xlink">
<defs>
<symbol id="icon-notification" viewBox="0 0 32 32">
<path fill="#99baed" style="fill: var(--color1, #99baed)" d="M26.36 15.528c-0.974-1.138-1.417-2.123-1.417-3.798v-0.569c0-2.182-0.502-3.589-1.594-4.994-1.683-2.184-4.516-3.499-7.29-3.499h-0.117c-2.715 0-5.46 1.256-7.172 3.35-1.152 1.435-1.712 2.901-1.712 5.143v0.57c0 1.675-0.414 2.661-1.417 3.797-0.738 0.838-0.974 1.915-0.974 3.080 0 1.167 0.383 2.273 1.151 3.171 0.985 1.048 2.334 1.743 3.844 1.882l0.024 0.002c2.095 0.238 4.19 0.328 6.315 0.328 2.124 0 4.219-0.15 6.316-0.328 1.533-0.142 2.881-0.837 3.862-1.881l0.003-0.003c0.767-0.899 1.151-2.004 1.151-3.171 0-1.166-0.236-2.242-0.974-3.080z"></path>
<path fill="#aeaeae" style="fill: var(--color2, #aeaeae)" opacity="0.4" d="M18.678 25.638c-0.667-0.142-4.728-0.142-5.394 0-0.57 0.131-1.186 0.437-1.186 1.109 0.033 0.64 0.408 1.205 0.928 1.564l-0.002 0.002c0.634 0.499 1.411 0.845 2.259 0.972l0.027 0.003c0.44 0.061 0.888 0.059 1.344 0 0.874-0.13 1.65-0.477 2.295-0.983l-0.010 0.008-0.002-0.002c0.52-0.358 0.894-0.924 0.928-1.564 0-0.672-0.616-0.978-1.186-1.109z"></path>
<path fill="#ff5050" style="fill: var(--color3, #ff5050); stroke: var(--color4, #fff)" stroke="#fff" stroke-linejoin="miter" stroke-linecap="butt" stroke-miterlimit="4" stroke-width="0.7619" d="M28.588 5.662c0.052 3.347-2.619 6.101-5.966 6.153s-6.101-2.619-6.153-5.966c-0.052-3.347 2.619-6.101 5.966-6.153s6.101 2.619 6.153 5.966z"></path>
<path fill="#fff" style="fill: var(--color4, #fff)" d="M22.381 3.994c-0.542 0.002-1.048 0.158-1.476 0.426l0.012-0.007 0.187 0.789c0.448-0.266 0.845-0.402 1.19-0.407 0.254-0.004 0.456 0.043 0.604 0.143 0.142 0.083 0.236 0.235 0.236 0.409 0 0.005-0 0.010-0 0.014l0-0.001c0.002 0.147-0.056 0.306-0.175 0.475s-0.309 0.368-0.57 0.595l-1.519 1.334 0.011 0.663 3.368-0.052-0.104-0.753-1.928 0.030 0.715-0.613c0.386-0.335 0.655-0.625 0.81-0.866 0.153-0.242 0.228-0.53 0.222-0.865-0-0.254-0.075-0.49-0.204-0.688l0.003 0.005c-0.13-0.201-0.312-0.358-0.549-0.472s-0.513-0.168-0.833-0.162z"></path>
</symbol>
<symbol id="icon-profile" viewBox="0 0 32 32">
<path fill="#99baed" style="fill: var(--color1, #99baed)" d="M15.995 20.232c-5.75 0-10.662 0.907-10.662 4.533 0 3.628 4.881 4.567 10.662 4.567 5.751 0 10.663-0.905 10.663-4.533s-4.88-4.567-10.663-4.567z"></path>
<path fill="#a4a4a4" style="fill: var(--color5, #a4a4a4)" opacity="0.4" d="M15.995 16.778c0.007 0 0.016 0 0.025 0 3.883 0 7.031-3.148 7.031-7.031 0-0.009 0-0.017-0-0.026v0.001c0-3.916-3.139-7.056-7.055-7.056-0.007-0-0.016-0-0.024-0-3.884 0-7.032 3.149-7.032 7.032 0 0.008 0 0.016 0 0.024v-0.001c-0 0.007-0 0.016-0 0.024 0 3.883 3.148 7.032 7.032 7.032 0.009 0 0.017 0 0.026-0h-0.001z"></path>
</symbol>
<symbol id="icon-scissors" viewBox="0 0 32 32">
<path fill="#99baed" style="fill: var(--color1, #99baed)" d="M15.868 2.44c-1.869 0.163-3.289 1.814-3.126 3.683l0.841 9.61-3.18 1.482c-1.065-1.85-3.387-2.61-5.357-1.69-2.081 0.971-2.981 3.444-2.011 5.525s3.444 2.982 5.525 2.011c1.353-0.641 2.293-1.955 2.392-3.497l0.001-0.012 3.894-1.816 0.374 4.28c-1.127 0.756-1.859 2.025-1.859 3.464 0 0.128 0.006 0.254 0.017 0.379l-0.001-0.016c0.2 2.288 2.217 3.979 4.504 3.779s3.98-2.217 3.78-4.504c-0.189-2.166-2.008-3.797-4.143-3.794l-0.306-3.495 8.743-4.077c1.7-0.793 2.419-2.848 1.626-4.548l-10.688 4.984-1.028-11.748zM8.683 20.367c-0.38 0.649-1.073 1.078-1.867 1.078-1.19 0-2.155-0.965-2.155-2.155 0-0.397 0.107-0.769 0.294-1.088l-0.005 0.010c0.38-0.649 1.073-1.078 1.867-1.078 1.19 0 2.155 0.965 2.155 2.155 0 0.397-0.107 0.768-0.294 1.088l0.005-0.010zM19.385 26.546c-0.38 0.649-1.073 1.078-1.867 1.078-1.19 0-2.155-0.965-2.155-2.155 0-0.397 0.107-0.769 0.294-1.088l-0.005 0.010c0.38-0.649 1.073-1.078 1.867-1.078 1.19 0 2.155 0.965 2.155 2.155 0 0.397-0.107 0.768-0.294 1.088l0.006-0.010z"></path>
</symbol>
<symbol id="facebook" viewBox="0 0 16 32">
<path fill="#fff" style="fill: var(--color1, #fff)" d="M13.079 5.313h2.921v-5.088c-0.504-0.069-2.237-0.225-4.256-0.225-4.212 0-7.097 2.649-7.097 7.519v4.481h-4.648v5.688h4.648v14.312h5.698v-14.311h4.46l0.708-5.688h-5.169v-3.919c0.001-1.644 0.444-2.769 2.734-2.769z"></path>
</symbol>
<symbol id="twitter" viewBox="0 0 39 32">
<path fill="#fff" style="fill: var(--color1, #fff)" d="M39.006 3.752c-1.451 0.636-2.996 1.058-4.608 1.263 1.658-0.99 2.923-2.545 3.518-4.42-1.546 0.922-3.252 1.572-5.071 1.936-1.468-1.563-3.559-2.53-5.841-2.53-4.427 0-7.991 3.593-7.991 7.999 0 0.634 0.054 1.243 0.185 1.824-6.648-0.324-12.531-3.511-16.482-8.364-0.69 1.197-1.095 2.567-1.095 4.042 0 2.769 1.426 5.224 3.552 6.646-1.285-0.024-2.545-0.397-3.613-0.985 0 0.024 0 0.056 0 0.088 0 3.886 2.772 7.114 6.407 7.857-0.651 0.178-1.36 0.263-2.097 0.263-0.512 0-1.029-0.029-1.514-0.137 1.036 3.167 3.976 5.495 7.472 5.57-2.721 2.128-6.175 3.411-9.915 3.411-0.656 0-1.285-0.029-1.914-0.11 3.542 2.284 7.74 3.589 12.267 3.589 14.715 0 22.76-12.189 22.76-22.755 0-0.354-0.012-0.695-0.029-1.034 1.587-1.126 2.92-2.533 4.008-4.152z"></path>
</symbol>
<symbol id="google" viewBox="0 0 30 32">
<path fill="#fff" style="fill: var(--color1, #fff)" d="M25.937 13.099v-3.93h-2.62v3.93h-3.93v2.62h3.93v3.93h2.62v-3.93h3.93v-2.62h-3.93zM15.85 17.553l-1.441-1.048c-0.524-0.393-1.048-0.917-1.048-1.834s0.655-1.703 1.31-2.096c1.703-1.31 3.406-2.751 3.406-5.633 0-2.751-1.703-4.323-2.62-5.109h2.227l1.572-1.834h-8.122c-5.764 0-8.646 3.668-8.646 7.597 0 3.013 2.358 6.288 6.55 6.288h1.048c-0.131 0.393-0.524 1.048-0.524 1.703 0 1.31 0.524 1.834 1.179 2.62-1.834 0.131-5.24 0.524-7.729 2.096-2.358 1.441-3.013 3.406-3.013 4.847 0 3.013 2.751 5.895 8.646 5.895 7.074 0 10.48-3.93 10.48-7.728-0-2.751-1.441-4.192-3.275-5.764zM5.895 5.633c0-2.882 1.703-4.192 3.537-4.192 3.406 0 5.24 4.585 5.24 7.205 0 3.406-2.751 4.061-3.799 4.061-3.275 0-4.978-4.061-4.978-7.074zM10.61 29.211c-4.323 0-7.074-1.965-7.074-4.847s2.62-3.799 3.406-4.192c1.703-0.524 3.93-0.655 4.323-0.655s0.655 0 0.917 0c3.144 2.227 4.454 3.144 4.454 5.24 0 2.489-2.489 4.454-6.026 4.454z"></path>
</symbol>
</defs>
</svg>
