<svg width="42" height="42" fill="none" xmlns="http://www.w3.org/2000/svg">
  <g clip-path="url(#a)">
    <path d="M34.597 20.38c-1.279-1.493-1.86-2.787-1.86-4.985v-.747c0-2.864-.659-4.71-2.092-6.555C28.436 5.227 24.718 3.5 21.077 3.5h-.154c-3.564 0-7.166 1.648-9.413 4.397-1.512 1.883-2.247 3.807-2.247 6.75v.748c0 2.198-.543 3.492-1.86 4.984-.968 1.1-1.278 2.514-1.278 4.043 0 1.532.503 2.983 1.511 4.162a7.931 7.931 0 0 0 5.076 2.473c2.75.313 5.499.431 8.289.431 2.788 0 5.538-.197 8.29-.431a7.93 7.93 0 0 0 5.073-2.473c1.007-1.18 1.511-2.63 1.511-4.162 0-1.53-.31-2.943-1.278-4.043Z" fill="#99BAED"/>
    <path opacity=".4" d="M24.515 33.65c-.875-.187-6.206-.187-7.08 0-.748.172-1.557.574-1.557 1.456.043.84.536 1.582 1.218 2.053l-.002.002a6.364 6.364 0 0 0 3 1.28c.578.08 1.165.077 1.764 0a6.364 6.364 0 0 0 2.998-1.28l-.002-.002c.682-.47 1.174-1.213 1.218-2.053 0-.882-.809-1.284-1.557-1.456Z" fill="#AEAEAE"/>
    <circle cx="29.569" cy="7.554" r="7.954" transform="rotate(-.887 29.569 7.554)" fill="#FF5050" stroke="#fff"/>
    <path d="M29.375 5.242a3.69 3.69 0 0 0-1.922.55l.246 1.036c.588-.349 1.109-.527 1.562-.534.334-.005.598.057.793.188a.621.621 0 0 1 .309.555c.003.193-.074.401-.23.624-.157.222-.406.483-.748.781l-1.994 1.751.014.87 4.42-.068-.136-.988-2.53.039.938-.805c.506-.44.86-.82 1.063-1.136.201-.317.299-.695.292-1.135a1.662 1.662 0 0 0-.264-.896c-.17-.264-.41-.47-.72-.619-.309-.148-.673-.22-1.093-.213Z" fill="#fff"/>
  </g>
  <defs>
    <clipPath id="a">
      <path fill="#fff" d="M0 0h42v42H0z"/>
    </clipPath>
  </defs>
</svg>
