<svg width="102" height="102" fill="none" xmlns="http://www.w3.org/2000/svg">
  <g clip-path="url(#a)">
    <path d="M50.58 7.776c-5.956.521-10.484 5.781-9.963 11.739l2.68 30.633-10.135 4.725c-3.394-5.897-10.795-8.318-17.077-5.388-6.634 3.094-9.503 10.978-6.41 17.612 3.093 6.633 10.977 9.504 17.612 6.41a13.249 13.249 0 0 0 7.627-11.185l12.413-5.789 1.193 13.642a13.253 13.253 0 0 0-5.874 12.199c.638 7.292 7.066 12.684 14.357 12.047 7.293-.638 12.686-7.066 12.048-14.357-.604-6.905-6.4-12.103-13.205-12.095l-.975-11.14 27.868-12.995c5.42-2.528 7.711-9.079 5.184-14.498L53.856 45.224 50.58 7.776ZM27.676 64.92a6.87 6.87 0 1 1-11.9-6.871 6.87 6.87 0 0 1 11.9 6.87Zm34.113 19.695a6.87 6.87 0 1 1-11.9-6.871 6.87 6.87 0 0 1 11.9 6.87Z" fill="#99BAED"/>
  </g>
  <defs>
    <clipPath id="a">
      <path fill="#fff" transform="rotate(-60 55.668 32.14)" d="M0 0h74.224v74.224H0z"/>
    </clipPath>
  </defs>
</svg>
